Coordinates
version=1
nRows=32
nColumns=12
inDegrees=yes

Units are S.I. units (second, meters, Newtons, ...)
Angles are in degrees

endheader
time	SC_y	SC_z	SC_x	AC_y	AC_z	AC_x	GH_y	GH_z	GH_yy	EL_x	PS_y
       0.0              -47.03          33.06          65.96          62.15          4.592         -3.479         -170.3          -16.7          66.82          52.07          33.45
   0.02851              -47.03          33.05          65.95          62.14          4.589         -3.479         -170.2         -16.69          66.84          52.08          33.46
   0.05703              -47.03          33.05          65.94          62.14          4.585         -3.479         -170.2         -16.69          66.85          52.09          33.46
   0.08554              -47.03          33.05          65.94          62.14          4.581         -3.479         -170.2         -16.68          66.87          52.11          33.47
    0.1141              -47.03          33.04          65.93          62.14          4.578         -3.479         -170.2         -16.67          66.89          52.12          33.48
    0.1426              -47.02          33.04          65.92          62.14          4.573         -3.479         -170.1         -16.66          66.91          52.13          33.49
    0.1711              -47.02          33.04          65.91          62.13          4.569         -3.479         -170.1         -16.65          66.93          52.15          33.49
    0.1996              -47.02          33.03           65.9          62.13          4.564         -3.478         -170.1         -16.64          66.95          52.16           33.5
    0.2281              -47.01          33.03          65.89          62.13          4.559         -3.478         -170.0         -16.63          66.97          52.18          33.51
    0.2566              -47.01          33.02          65.87          62.13          4.554         -3.478         -170.0         -16.62           67.0           52.2          33.52
    0.2851              -47.01          33.02          65.86          62.12          4.548         -3.478         -169.9         -16.61          67.03          52.22          33.53
    0.3137               -47.0          33.01          65.85          62.12          4.542         -3.478         -169.9          -16.6          67.06          52.24          33.54
    0.3422               -47.0          33.01          65.83          62.12          4.535         -3.477         -169.8         -16.59          67.09          52.26          33.55
    0.3707               -47.0           33.0          65.81          62.11          4.528         -3.477         -169.8         -16.57          67.12          52.28          33.57
    0.3992              -46.99           33.0           65.8          62.11           4.52         -3.477         -169.7         -16.56          67.16          52.31          33.58
    0.4277              -46.99          32.99          65.78           62.1          4.511         -3.477         -169.7         -16.54           67.2          52.34           33.6
    0.4562              -46.98          32.98          65.76           62.1          4.502         -3.476         -169.6         -16.52          67.24          52.37          33.61
    0.4847              -46.97          32.97          65.73          62.09          4.492         -3.476         -169.5          -16.5          67.29           52.4          33.63
    0.5133              -46.97          32.96          65.71          62.09          4.481         -3.476         -169.4         -16.48          67.34          52.44          33.65
    0.5418              -46.96          32.95          65.68          62.08          4.468         -3.475         -169.3         -16.46           67.4          52.47          33.67
    0.5703              -46.95          32.94          65.65          62.07          4.455         -3.475         -169.2         -16.43          67.46          52.52           33.7
    0.5988              -46.94          32.93          65.62          62.06           4.44         -3.474         -169.1          -16.4          67.53          52.57          33.72
    0.6273              -46.94          32.92          65.58          62.06          4.424         -3.474         -169.0         -16.37          67.61          52.62          33.75
    0.6558              -46.92           32.9          65.54          62.05          4.406         -3.473         -168.9         -16.33          67.69          52.68          33.79
    0.6843              -46.91          32.89           65.5          62.03          4.386         -3.473         -168.7         -16.29          67.79          52.74          33.82
    0.7129               -46.9          32.87          65.45          62.02          4.364         -3.472         -168.5         -16.25          67.89          52.82          33.86
    0.7414              -46.88          32.85          65.39          62.01          4.339         -3.471         -168.4          -16.2          68.01           52.9          33.91
    0.7699              -46.87          32.82          65.33          61.99          4.311          -3.47         -168.2         -16.14          68.14          52.99          33.96
    0.7984              -46.85           32.8          65.26          61.98          4.279         -3.469         -167.9         -16.08          68.29          53.09          34.01
    0.8269              -46.83          32.77          65.18          61.96          4.243         -3.468         -167.6         -16.01          68.46          53.21          34.08
    0.8554               -46.8          32.73          65.08          61.93          4.202         -3.467         -167.3         -15.93          68.65          53.34          34.15
    0.8839              -46.78          32.69          64.98          61.91          4.155         -3.465         -167.0         -15.84          68.88           53.5          34.24
